Coordinates
version=1
nRows=43
nColumns=12
inDegrees=yes

Units are S.I. units (second, meters, Newtons, ...)
Angles are in degrees

endheader
time	SC_y	SC_z	SC_x	AC_y	AC_z	AC_x	GH_y	GH_z	GH_yy	EL_x	PS_y
       0.0              -30.44         0.7183          6.824          50.79         -12.18         -2.549         -34.12          45.37         -27.63          47.15           88.7
  0.004461              -30.44         0.7204          6.835          50.79         -12.18         -2.548         -34.14          45.38         -27.63          47.15          88.69
  0.008921              -30.44         0.7227          6.847          50.79         -12.18         -2.546         -34.16          45.38         -27.63          47.15          88.68
   0.01338              -30.44         0.7252          6.859          50.79         -12.18         -2.545         -34.18          45.39         -27.63          47.15          88.67
   0.01784              -30.44         0.7278          6.873          50.78         -12.18         -2.543         -34.21           45.4         -27.63          47.15          88.66
    0.0223              -30.44         0.7305          6.887          50.78         -12.17         -2.541         -34.23           45.4         -27.64          47.16          88.65
   0.02676              -30.44         0.7335          6.902          50.78         -12.17         -2.539         -34.26          45.41         -27.64          47.16          88.64
   0.03122              -30.44         0.7367          6.918          50.78         -12.17         -2.537         -34.29          45.42         -27.64          47.16          88.63
   0.03568              -30.44         0.7401          6.935          50.77         -12.17         -2.534         -34.33          45.42         -27.64          47.16          88.61
   0.04015              -30.44         0.7437          6.954          50.77         -12.16         -2.532         -34.36          45.43         -27.64          47.16           88.6
   0.04461              -30.44         0.7476          6.974          50.77         -12.16         -2.529          -34.4          45.44         -27.65          47.16          88.58
   0.04907              -30.44         0.7518          6.995          50.77         -12.16         -2.526         -34.44          45.45         -27.65          47.17          88.57
   0.05353              -30.43         0.7563          7.018          50.76         -12.15         -2.523         -34.48          45.46         -27.65          47.17          88.55
   0.05799              -30.43         0.7612          7.043          50.76         -12.15          -2.52         -34.53          45.47         -27.65          47.17          88.53
   0.06245              -30.43         0.7665           7.07          50.76         -12.14         -2.516         -34.58          45.48         -27.66          47.17          88.51
   0.06691              -30.43         0.7723            7.1          50.75         -12.14         -2.512         -34.64          45.49         -27.66          47.18          88.48
   0.07137              -30.43         0.7785          7.131          50.75         -12.13         -2.508          -34.7          45.51         -27.67          47.18          88.46
   0.07583              -30.43         0.7853          7.166          50.74         -12.13         -2.503         -34.76          45.52         -27.67          47.18          88.43
   0.08029              -30.43         0.7927          7.204          50.74         -12.12         -2.498         -34.83          45.54         -27.67          47.19           88.4
   0.08475              -30.42         0.8009          7.245          50.73         -12.11         -2.493         -34.91          45.56         -27.68          47.19          88.37
   0.08921              -30.42         0.8098          7.291          50.72         -12.11         -2.487          -35.0          45.58         -27.69           47.2          88.33
   0.09367              -30.42         0.8196          7.341          50.72          -12.1          -2.48         -35.09           45.6         -27.69           47.2           88.3
   0.09813              -30.42         0.8305          7.396          50.71         -12.09         -2.473          -35.2          45.62          -27.7          47.21          88.25
    0.1026              -30.41         0.8425          7.458           50.7         -12.08         -2.464         -35.31          45.65         -27.71          47.21           88.2
    0.1071              -30.41         0.8559          7.526          50.69         -12.07         -2.455         -35.44          45.68         -27.71          47.22          88.15
    0.1115              -30.41         0.8708          7.602          50.68         -12.05         -2.445         -35.58          45.71         -27.72          47.23          88.09
     0.116               -30.4         0.8875          7.687          50.67         -12.04         -2.433         -35.74          45.75         -27.73          47.24          88.02
    0.1204               -30.4         0.9063          7.783          50.66         -12.02         -2.421         -35.92          45.79         -27.75          47.25          87.95
    0.1249              -30.39         0.9275          7.891          50.64         -12.01         -2.406         -36.13          45.83         -27.76          47.26          87.86
    0.1294              -30.39         0.9517          8.014          50.62         -11.99          -2.39         -36.36          45.89         -27.77          47.27          87.77
    0.1338              -30.38         0.9792          8.155           50.6         -11.96         -2.371         -36.62          45.95         -27.79          47.28          87.66
    0.1383              -30.37          1.011          8.316          50.58         -11.94         -2.349         -36.93          46.02         -27.81           47.3          87.53
    0.1427              -30.36          1.047          8.502          50.55         -11.91         -2.324         -37.28           46.1         -27.83          47.32          87.39
    0.1472              -30.35           1.09          8.718          50.52         -11.87         -2.295         -37.69          46.19         -27.86          47.34          87.22
    0.1517              -30.34          1.139          8.971          50.49         -11.83         -2.261         -38.16           46.3         -27.89          47.37          87.02
    0.1561              -30.33          1.198          9.269          50.45         -11.78         -2.221         -38.73          46.43         -27.93           47.4          86.78
    0.1606              -30.31          1.267          9.623           50.4         -11.72         -2.174         -39.39          46.58         -27.97          47.43          86.51
     0.165              -30.29           1.35          10.05          50.34         -11.65         -2.117         -40.19          46.76         -28.02          47.48          86.17
    0.1695              -30.26          1.451          10.56          50.26         -11.57         -2.048         -41.16          46.98         -28.09          47.53          85.77
     0.174              -30.23          1.574          11.19          50.18         -11.46         -1.964         -42.35          47.25         -28.17          47.59          85.28
    0.1784               -30.2          1.726          11.96          50.07         -11.33          -1.86         -43.81          47.59         -28.26          47.67          84.67
    0.1829              -30.15          1.915          12.93          49.93         -11.17          -1.73         -45.63           48.0         -28.38          47.77          83.92
    0.1873              -30.09          2.154          14.15          49.76         -10.97         -1.567         -47.92          48.52         -28.53           47.9          82.96
